<?xml version="1.0" encoding="UTF-8"?><svg id="a" xmlns="http://www.w3.org/2000/svg" viewBox="0 0 800 800" style="fill: #007350;"><path class="b" d="m596.33,251.46c-4.57-11.75-10.03-20.14-18.84-28.96-8.81-8.81-17.2-14.27-28.96-18.84-8.87-3.45-22.21-7.55-46.77-8.67-26.56-1.21-34.52-1.47-101.77-1.47s-75.21.26-101.77,1.47c-24.55,1.12-37.89,5.22-46.77,8.67-11.76,4.57-20.15,10.03-28.96,18.84-8.81,8.81-14.27,17.2-18.84,28.96-3.45,8.88-7.55,22.21-8.67,46.77-1.21,26.56-1.47,34.52-1.47,101.77s.26,75.21,1.47,101.77c1.12,24.56,5.22,37.89,8.67,46.77,4.57,11.76,10.03,20.15,18.84,28.96,8.81,8.81,17.2,14.27,28.96,18.84,8.87,3.45,22.21,7.55,46.77,8.67,26.55,1.21,34.52,1.47,101.77,1.47s75.22-.26,101.77-1.47c24.56-1.12,37.89-5.22,46.77-8.67,11.76-4.57,20.15-10.03,28.96-18.84,8.81-8.81,14.27-17.2,18.84-28.96,3.45-8.87,7.55-22.21,8.67-46.77,1.21-26.56,1.47-34.52,1.47-101.77s-.26-75.21-1.47-101.77c-1.12-24.55-5.22-37.89-8.67-46.77Zm-196.33,277.86c-71.43,0-129.33-57.9-129.33-129.33s57.9-129.33,129.33-129.33,129.33,57.9,129.33,129.33-57.9,129.33-129.33,129.33Zm134.44-233.55c-16.69,0-30.22-13.53-30.22-30.22s13.53-30.22,30.22-30.22,30.22,13.53,30.22,30.22-13.53,30.22-30.22,30.22Z"/><path class="b" d="m400,0C179.09,0,0,179.09,0,400s179.09,400,400,400,400-179.09,400-400S620.91,0,400,0Zm250.34,503.84c-1.22,26.81-5.48,45.11-11.71,61.13-6.44,16.56-15.05,30.61-29.05,44.61-14,14-28.05,22.61-44.61,29.05-16.02,6.23-34.33,10.48-61.13,11.71-26.86,1.23-35.44,1.52-103.84,1.52s-76.98-.29-103.84-1.52c-26.81-1.22-45.11-5.48-61.13-11.71-16.56-6.44-30.61-15.05-44.61-29.05-14-14-22.61-28.05-29.05-44.61-6.23-16.02-10.48-34.33-11.71-61.13-1.23-26.86-1.52-35.44-1.52-103.84s.29-76.98,1.52-103.84c1.22-26.81,5.48-45.11,11.71-61.13,6.44-16.56,15.05-30.61,29.05-44.61,14-14,28.05-22.61,44.61-29.05,16.02-6.23,34.33-10.48,61.13-11.71,26.86-1.23,35.44-1.51,103.84-1.51s76.98.29,103.84,1.51c26.81,1.22,45.11,5.48,61.13,11.71,16.56,6.44,30.61,15.05,44.61,29.05,14,14,22.61,28.05,29.05,44.61,6.23,16.02,10.48,34.33,11.71,61.13,1.23,26.86,1.52,35.44,1.52,103.84s-.29,76.97-1.52,103.84Z"/><circle class="b" cx="400" cy="400" r="83.95"/></svg>