<?xml version="1.0" encoding="UTF-8"?><svg id="b" xmlns="http://www.w3.org/2000/svg" viewBox="0 0 591.53 345.41"><defs><style>.d{fill:#007350;stroke-width:0px;}</style></defs><g id="c"><path class="d" d="m96.01,68.54v-26.23c0-5.49-4.45-9.94-9.94-9.94h-26.23C26.85,32.37,0,59.22,0,92.22v134.74c0,5.49,4.45,9.94,9.94,9.94s9.94-4.45,9.94-9.94V92.22c0-22.04,17.93-39.97,39.97-39.97h16.29v16.29c0,22.04-17.93,39.97-39.97,39.97-5.49,0-9.94,4.45-9.94,9.94s4.45,9.94,9.94,9.94c33,0,59.84-26.85,59.84-59.84Z"/><path class="d" d="m182.18,32.37h-26.23c-5.49,0-9.94,4.45-9.94,9.94v26.23c0,33,26.85,59.84,59.84,59.84,5.49,0,9.94-4.45,9.94-9.94s-4.45-9.94-9.94-9.94c-22.04,0-39.97-17.93-39.97-39.97v-16.29h16.29c22.04,0,39.97,17.93,39.97,39.97,0,5.49,4.45,9.94,9.94,9.94s9.94-4.45,9.94-9.94c0-33-26.85-59.84-59.84-59.84Z"/><path class="d" d="m182.18,140.88h-26.23c-5.49,0-9.94,4.45-9.94,9.94v26.23c0,33,26.85,59.84,59.84,59.84,5.49,0,9.94-4.45,9.94-9.94s-4.45-9.94-9.94-9.94c-22.04,0-39.97-17.93-39.97-39.97v-16.29h16.29c22.04,0,39.97,17.93,39.97,39.97,0,5.49,4.45,9.94,9.94,9.94s9.94-4.45,9.94-9.94c0-33-26.85-59.84-59.84-59.84Z"/><path class="d" d="m292.33,32.37h-26.23c-5.49,0-9.94,4.45-9.94,9.94v76.14c0,5.49,4.45,9.94,9.94,9.94s9.94-4.45,9.94-9.94V52.25h16.29c22.04,0,39.97,17.93,39.97,39.97v84.84c0,22.04-17.93,39.97-39.97,39.97h-16.29v-16.29c0-22.04,17.93-39.97,39.97-39.97,5.49,0,9.94-4.45,9.94-9.94s-4.45-9.94-9.94-9.94c-33,0-59.84,26.85-59.84,59.84v26.23c0,5.49,4.45,9.94,9.94,9.94h26.23c33,0,59.84-26.85,59.84-59.84v-84.84c0-33-26.85-59.84-59.84-59.84Z"/><path class="d" d="m120.8,0c-5.49,0-9.94,4.45-9.94,9.94v139.17c0,.11-.02.22-.02.33v28.27c-.35,21.74-18.13,39.31-39.95,39.31h-16.29v-16.29c0-22.04,17.93-39.97,39.97-39.97,5.49,0,9.94-4.45,9.94-9.94s-4.45-9.94-9.94-9.94c-33,0-59.84,26.85-59.84,59.84v26.23c0,5.49,4.45,9.94,9.94,9.94h26.23c15.34,0,29.35-5.81,39.95-15.33v64c0,22.04-17.93,39.97-39.97,39.97h-16.29v-16.29c0-22.04,17.93-39.97,39.97-39.97,5.49,0,9.94-4.45,9.94-9.94s-4.45-9.94-9.94-9.94c-33,0-59.84,26.85-59.84,59.84v26.23c0,5.49,4.45,9.94,9.94,9.94h26.23c33,0,59.84-26.85,59.84-59.84v-107.86c0-.22.02-.43.02-.65V9.94c0-5.49-4.45-9.94-9.94-9.94Z"/><path class="d" d="m433.23,147.2c-4.91-2.46-10.88-.48-13.34,4.43-2.46,4.91-.48,10.88,4.43,13.34,13.62,6.83,22.09,20.53,22.09,35.76v16.29h-16.29c-22.04,0-39.97-17.93-39.97-39.97V52.25h38.63c5.49,0,9.94-4.45,9.94-9.94s-4.45-9.94-9.94-9.94h-38.63V9.94c0-5.49-4.45-9.94-9.94-9.94s-9.94,4.45-9.94,9.94v22.43h-16.3c-5.49,0-9.94,4.45-9.94,9.94s4.45,9.94,9.94,9.94h16.3v124.8c0,33,26.85,59.84,59.84,59.84h26.23c5.49,0,9.94-4.45,9.94-9.94v-26.23c0-22.79-12.67-43.31-33.06-53.53Z"/><path class="d" d="m581.59,74.69h-26.23c-20.82,0-39.18,10.69-49.91,26.87-10.72-16.18-29.09-26.87-49.91-26.87h-26.23c-5.49,0-9.94,4.45-9.94,9.94v33.82c0,5.49,4.45,9.94,9.94,9.94s9.94-4.45,9.94-9.94v-23.88h16.29c22.04,0,39.97,17.93,39.97,39.97v200.93c0,5.49,4.45,9.94,9.94,9.94s9.94-4.45,9.94-9.94v-200.93c0-22.04,17.93-39.97,39.97-39.97h16.29v16.29c0,22.04-17.93,39.97-39.97,39.97-5.49,0-9.94,4.45-9.94,9.94s4.45,9.94,9.94,9.94c33,0,59.84-26.85,59.84-59.84v-26.23c0-5.49-4.45-9.94-9.94-9.94Z"/><path class="d" d="m182.18,249.39h-26.23c-5.49,0-9.94,4.45-9.94,9.94v26.23c0,33,26.85,59.84,59.84,59.84h26.23c5.49,0,9.94-4.45,9.94-9.94v-26.23c0-33-26.85-59.84-59.84-59.84Zm39.97,76.14h-16.29c-22.04,0-39.97-17.93-39.97-39.97v-16.29h16.29c22.04,0,39.97,17.93,39.97,39.97v16.29Z"/><path class="d" d="m342.24,249.39h-26.23c-33,0-59.84,26.85-59.84,59.84v26.23c0,5.49,4.45,9.94,9.94,9.94s9.94-4.45,9.94-9.94v-26.23c0-17.38,11.15-32.2,26.68-37.69-5.53,9.75-8.48,22.47-8.48,37.69v26.23c0,5.49,4.45,9.94,9.94,9.94s9.94-4.45,9.94-9.94v-26.23c0-21.3,6.11-34.16,18.19-38.4v64.63c0,5.49,4.45,9.94,9.94,9.94s9.94-4.45,9.94-9.94v-76.14c0-5.49-4.45-9.94-9.94-9.94Z"/><path class="d" d="m406.44,249.39h-26.23c-5.49,0-9.94,4.45-9.94,9.94v76.14c0,5.49,4.45,9.94,9.94,9.94s9.94-4.45,9.94-9.94v-64.63c12.08,4.24,18.19,17.1,18.19,38.4v26.23c0,5.49,4.45,9.94,9.94,9.94s9.94-4.45,9.94-9.94v-26.23c0-15.21-2.96-27.94-8.48-37.69,15.52,5.49,26.68,20.31,26.68,37.69v26.23c0,5.49,4.45,9.94,9.94,9.94s9.94-4.45,9.94-9.94v-26.23c0-33-26.85-59.84-59.84-59.84Z"/></g></svg>